<svg xmlns="http://www.w3.org/2000/svg" xmlns:xlink="http://www.w3.org/1999/xlink" width="40" zoomAndPan="magnify" viewBox="0 0 30 30.000001" height="40" preserveAspectRatio="xMidYMid meet" version="1.0"><defs><clipPath id="3995836403"><path d="M 0.851562 0.4375 L 29.34375 0.4375 L 29.34375 28.597656 L 0.851562 28.597656 Z M 0.851562 0.4375 " clip-rule="nonzero"/></clipPath><clipPath id="be49b61c7a"><path d="M 1.773438 4.933594 C 0.078125 9.230469 1.082031 13.414062 3.144531 15.636719 L 15.207031 28.597656 L 27.011719 15.683594 C 28.929688 13.292969 29.507812 10.761719 29.257812 7.9375 C 28.695312 4.035156 25.820312 1.007812 22.273438 0.574219 C 20.097656 0.382812 17.996094 1 16.355469 2.527344 C 15.914062 2.9375 15.519531 3.398438 15.175781 3.898438 C 14.765625 3.328125 14.289062 2.808594 13.746094 2.347656 C 11.859375 0.742188 9.460938 0.296875 7.152344 0.601562 C 4.96875 1.074219 3.007812 2.652344 1.773438 4.933594 Z M 1.773438 4.933594 " clip-rule="nonzero"/></clipPath><clipPath id="fbf5aab29e"><path d="M 0.851562 0.4375 L 29.34375 0.4375 L 29.34375 28.597656 L 0.851562 28.597656 Z M 0.851562 0.4375 " clip-rule="nonzero"/></clipPath><clipPath id="17182a95ae"><path d="M 1.773438 4.933594 C 0.078125 9.230469 1.082031 13.414062 3.144531 15.636719 L 15.207031 28.597656 L 27.011719 15.683594 C 28.929688 13.292969 29.507812 10.761719 29.257812 7.9375 C 28.695312 4.035156 25.820312 1.007812 22.273438 0.574219 C 20.097656 0.382812 17.996094 1 16.355469 2.527344 C 15.914062 2.9375 15.519531 3.398438 15.175781 3.898438 C 14.765625 3.328125 14.289062 2.808594 13.746094 2.347656 C 11.859375 0.742188 9.460938 0.296875 7.152344 0.601562 C 4.96875 1.074219 3.007812 2.652344 1.773438 4.933594 Z M 1.773438 4.933594 " clip-rule="nonzero"/></clipPath><clipPath id="c01a88be32"><rect x="0" width="30" y="0" height="29"/></clipPath></defs><g clip-path="url(#3995836403)"><g clip-path="url(#be49b61c7a)"><g transform="matrix(1, 0, 0, 1, 0, 0.00000000000000569)"><g clip-path="url(#c01a88be32)"><g clip-path="url(#fbf5aab29e)"><g clip-path="url(#17182a95ae)"><path fill="#919191" d="M 0.632812 0.4375 L 29.34375 0.4375 L 29.34375 28.597656 L 0.632812 28.597656 Z M 0.632812 0.4375 " fill-opacity="1" fill-rule="nonzero"/></g></g></g></g></g></g></svg>